<?xml version="1.0" encoding="utf-8"?>
<!-- Generator: Adobe Illustrator 22.1.0, SVG Export Plug-In . SVG Version: 6.00 Build 0)  -->
<svg version="1.1" id="Layer_1" xmlns="http://www.w3.org/2000/svg" xmlns:xlink="http://www.w3.org/1999/xlink" x="0px" y="0px"
	 viewBox="0 0 64 64" style="enable-background:new 0 0 64 64;" xml:space="preserve">
<style type="text/css">
	.st0{fill:#F8F9FA;}
</style>
<path class="st0" d="M48.9,58.9L5.1,15.1c-2.8-2.8-2.8-7.3,0-10l0,0c2.8-2.8,7.3-2.8,10,0l43.8,43.8c2.8,2.8,2.8,7.3,0,10l0,0
	C56.1,61.7,51.7,61.7,48.9,58.9z"/>
<path class="st0" d="M15.1,58.9l43.8-43.8c2.8-2.8,2.8-7.3,0-10l0,0c-2.8-2.8-7.3-2.8-10,0L5.1,48.9c-2.8,2.8-2.8,7.3,0,10l0,0
	C7.9,61.7,12.3,61.7,15.1,58.9z"/>
</svg>
