<?xml version="1.0" encoding="utf-8"?>
<!-- Generator: Adobe Illustrator 22.1.0, SVG Export Plug-In . SVG Version: 6.00 Build 0)  -->
<svg version="1.1" id="Layer_1" xmlns="http://www.w3.org/2000/svg" xmlns:xlink="http://www.w3.org/1999/xlink" x="0px" y="0px"
	 viewBox="0 0 316 289" style="enable-background:new 0 0 316 289;" xml:space="preserve">
<style type="text/css">
	.st0{fill:#414042;}
	.st1{fill:#ED1C24;}
	.st2{fill:#345DAB;}
</style>
<g>
	<path class="st0" d="M47.8,246.6H44c0-0.1-0.1-0.3-0.1-0.5c0-0.2,0-0.4,0-0.7c0-0.2,0-0.5,0-0.7c0-0.2,0-0.4,0.1-0.6h3.8v-2
		c0-2.7,0.6-4.8,1.8-6.2c1.2-1.4,3.1-2.1,5.8-2.1c0.6,0,1.2,0,1.7,0.1c0.5,0.1,0.9,0.2,1.3,0.2c-0.1,0.6-0.1,1-0.2,1.4
		c-0.1,0.4-0.2,0.7-0.3,1.1c-0.3-0.1-0.6-0.1-1.1-0.2s-0.9-0.1-1.4-0.1c-0.8,0-1.4,0.1-2,0.2c-0.6,0.2-1.1,0.5-1.5,0.9
		c-0.4,0.4-0.7,1-0.9,1.8c-0.2,0.8-0.3,1.7-0.3,2.9v1.8h6.1c0,0.1,0.1,0.3,0.1,0.6c0,0.2,0,0.5,0,0.7c0,0.2,0,0.5,0,0.7
		c0,0.2,0,0.4-0.1,0.5h-6.1v19.9c-0.2,0-0.4,0.1-0.7,0.1s-0.5,0-0.7,0c-0.1,0-0.4,0-0.7,0c-0.3,0-0.6,0-0.7-0.1V246.6z"/>
	<path class="st0" d="M59.4,244.1c0.2,0,0.5-0.1,0.7-0.1c0.2,0,0.4,0,0.6,0c0.2,0,0.5,0,0.7,0c0.2,0,0.4,0,0.7,0.1
		c0.1,0.5,0.1,1.1,0.1,1.9c0,0.7,0,1.4,0,2c0.6-1.1,1.4-2,2.5-2.7c1.1-0.7,2.4-1.1,4.2-1.1c0.1,0,0.3,0,0.5,0c0.2,0,0.3,0,0.5,0
		c0.1,0.5,0.1,1,0.1,1.4c0,0.5,0,0.9-0.1,1.4c-0.2,0-0.4,0-0.5,0c-0.1,0-0.3,0-0.4,0c-2,0-3.6,0.6-4.8,1.9c-1.2,1.3-1.8,3.3-1.8,6.3
		v11.5c-0.2,0-0.4,0.1-0.7,0.1c-0.3,0-0.5,0-0.7,0c-0.1,0-0.4,0-0.7,0c-0.3,0-0.6,0-0.7-0.1V244.1z"/>
	<path class="st0" d="M84.4,251.7c0-1.9-0.5-3.3-1.4-4.2c-0.9-0.9-2.3-1.3-4-1.3c-1.2,0-2.2,0.1-3.2,0.2c-1,0.2-1.8,0.4-2.6,0.6
		c-0.1-0.3-0.3-0.6-0.4-1.1c-0.1-0.5-0.2-1-0.2-1.4c0.8-0.2,1.7-0.4,2.8-0.6c1.1-0.2,2.3-0.2,3.4-0.2c2.8,0,4.9,0.6,6.3,1.9
		c1.4,1.2,2.1,3.2,2.1,5.9v14.8c-1,0.2-2.3,0.4-3.7,0.6c-1.5,0.2-2.9,0.3-4.2,0.3c-2.7,0-4.9-0.5-6.4-1.6c-1.6-1.1-2.3-2.8-2.3-5.3
		c0-1.2,0.2-2.2,0.7-3.1c0.5-0.9,1.1-1.7,1.9-2.3c0.8-0.6,1.8-1.1,2.9-1.4c1.1-0.3,2.4-0.5,3.7-0.5c1.1,0,2,0,2.7,0.1
		c0.8,0.1,1.4,0.1,1.9,0.2V251.7z M84.4,255.6c-0.5-0.1-1.1-0.1-1.9-0.2c-0.7-0.1-1.5-0.1-2.1-0.1c-2.2,0-3.9,0.4-5.1,1.2
		c-1.2,0.8-1.8,2-1.8,3.5c0,1,0.2,1.7,0.5,2.3c0.4,0.6,0.8,1,1.4,1.3c0.6,0.3,1.2,0.5,1.9,0.6c0.7,0.1,1.4,0.2,2.1,0.2
		c0.9,0,1.8,0,2.5-0.1c0.8-0.1,1.6-0.2,2.3-0.4V255.6z"/>
	<path class="st0" d="M92.4,244.1c0.2,0,0.5-0.1,0.7-0.1c0.2,0,0.4,0,0.6,0c0.2,0,0.5,0,0.7,0c0.2,0,0.4,0,0.7,0.1
		c0.1,0.5,0.1,1.2,0.1,1.9c0,0.7,0,1.4,0,2c0.3-0.6,0.6-1.1,1-1.6c0.4-0.5,0.9-1,1.4-1.4c0.6-0.4,1.2-0.7,1.9-1
		c0.7-0.2,1.5-0.4,2.4-0.4c0.8,0,1.6,0.1,2.2,0.3c0.6,0.2,1.1,0.5,1.6,0.9c0.5,0.4,0.8,0.8,1.1,1.3s0.6,1.1,0.9,1.7
		c0.3-0.5,0.7-0.9,1.1-1.4c0.4-0.5,0.9-0.9,1.4-1.3c0.5-0.4,1.1-0.7,1.8-1c0.7-0.2,1.5-0.4,2.3-0.4c2.6,0,4.5,0.7,5.6,2.2
		c1.2,1.5,1.7,3.6,1.7,6.4v14.3c-0.2,0-0.4,0.1-0.7,0.1c-0.3,0-0.5,0-0.7,0c-0.1,0-0.4,0-0.7,0c-0.3,0-0.6,0-0.7-0.1v-13.2
		c0-2.4-0.4-4.1-1.2-5.3c-0.8-1.1-1.9-1.7-3.5-1.7c-0.9,0-1.8,0.2-2.5,0.6c-0.7,0.4-1.3,0.9-1.8,1.5c-0.5,0.6-0.8,1.4-1.1,2.3
		c-0.2,0.9-0.4,1.8-0.4,2.7v13.1c-0.2,0-0.4,0.1-0.7,0.1s-0.5,0-0.7,0c-0.1,0-0.4,0-0.7,0c-0.3,0-0.6,0-0.7-0.1v-13.8
		c0-2.3-0.4-3.9-1.1-5c-0.7-1.1-1.7-1.6-3.1-1.6c-0.9,0-1.7,0.2-2.5,0.7c-0.8,0.5-1.4,1.1-2,1.9c-0.6,0.8-1,1.8-1.3,2.9
		c-0.3,1.1-0.5,2.4-0.5,3.7v11.2c-0.2,0-0.4,0.1-0.7,0.1c-0.3,0-0.5,0-0.7,0c-0.1,0-0.4,0-0.7,0c-0.3,0-0.6,0-0.7-0.1V244.1z"/>
	<path class="st0" d="M128.7,255.7c0,3,0.7,5.2,2.1,6.6c1.4,1.4,3.4,2.1,6.2,2.1c1.1,0,2.1-0.1,3.1-0.3c0.9-0.2,1.9-0.4,2.8-0.8
		c0.1,0.3,0.3,0.7,0.4,1.2c0.1,0.5,0.1,0.9,0.2,1.3c-0.8,0.4-1.8,0.7-3,0.9c-1.1,0.2-2.4,0.3-3.7,0.3c-1.9,0-3.6-0.3-5-0.9
		c-1.4-0.6-2.5-1.4-3.4-2.4c-0.9-1-1.6-2.2-2-3.7c-0.4-1.4-0.6-3-0.6-4.7c0-1.6,0.2-3.2,0.6-4.6c0.4-1.4,1-2.7,1.8-3.8
		c0.8-1.1,1.8-1.9,3.1-2.5c1.3-0.6,2.8-0.9,4.5-0.9c1.5,0,2.8,0.2,3.9,0.7c1.1,0.5,2.1,1.2,2.9,2.1c0.8,0.9,1.4,2,1.8,3.2
		c0.4,1.2,0.6,2.6,0.6,4.1c0,0.3,0,0.6,0,1c0,0.4,0,0.8-0.1,1.1H128.7z M141.9,253.3c0-0.9-0.1-1.8-0.4-2.7
		c-0.2-0.9-0.6-1.6-1.1-2.3c-0.5-0.7-1.1-1.2-1.9-1.6c-0.8-0.4-1.7-0.6-2.9-0.6c-2,0-3.6,0.6-4.8,1.9s-1.8,3-2.1,5.3H141.9z"/>
	<path class="st0" d="M145.4,243.8c0.7-0.1,1.3-0.2,1.9-0.3c0.6,0,1.1,0,1.5,0c0.6,0,1.2,0,1.7,0c0.6,0,1.1,0.1,1.6,0.2l3.6,16.8
		l4.2-16.8c0.9-0.2,1.9-0.3,3-0.3c0.8,0,1.4,0.1,1.9,0.1s0.9,0.1,1.3,0.2l4.1,16.4l3.6-16.4c0.5-0.1,1-0.2,1.4-0.2
		c0.4,0,0.9-0.1,1.5-0.1c0.4,0,0.9,0,1.5,0s1.2,0.1,1.9,0.3l-7.1,22.6c-0.5,0.1-1.1,0.1-1.7,0.2c-0.6,0-1.1,0-1.5,0
		c-0.4,0-0.9,0-1.5,0c-0.5,0-1.1-0.1-1.6-0.2l-4.1-15l-4.3,15c-0.6,0.1-1.1,0.1-1.7,0.2c-0.6,0-1.1,0-1.5,0c-0.4,0-0.9,0-1.4,0
		c-0.5,0-1.1-0.1-1.6-0.2L145.4,243.8z"/>
	<path class="st0" d="M190.3,267c-1.8,0-3.4-0.3-4.8-0.9c-1.4-0.6-2.5-1.4-3.4-2.5c-0.9-1.1-1.6-2.3-2-3.7s-0.7-3-0.7-4.6
		s0.2-3.2,0.7-4.7s1.1-2.7,2-3.8s2-1.9,3.4-2.5c1.4-0.6,3-0.9,4.8-0.9s3.5,0.3,4.8,0.9c1.4,0.6,2.5,1.5,3.4,2.5s1.6,2.3,2,3.8
		s0.7,3,0.7,4.7s-0.2,3.2-0.7,4.6s-1.1,2.7-2,3.7c-0.9,1.1-2,1.9-3.4,2.5C193.7,266.7,192.1,267,190.3,267z M190.3,262.3
		c1.6,0,2.8-0.6,3.5-1.8c0.7-1.2,1.1-3,1.1-5.2s-0.4-4-1.1-5.2c-0.7-1.2-1.9-1.8-3.5-1.8c-1.6,0-2.8,0.6-3.5,1.8
		c-0.7,1.2-1.1,3-1.1,5.2s0.4,4,1.1,5.2C187.5,261.7,188.6,262.3,190.3,262.3z"/>
	<path class="st0" d="M203.9,243.8c0.4-0.1,0.9-0.2,1.3-0.2c0.4,0,0.8-0.1,1.3-0.1c0.4,0,0.9,0,1.3,0.1s0.8,0.1,1.3,0.2
		c0.1,0.1,0.2,0.4,0.2,0.6c0.1,0.3,0.1,0.6,0.2,0.9c0.1,0.3,0.1,0.6,0.2,0.9c0,0.3,0.1,0.6,0.1,0.8c0.6-0.9,1.4-1.7,2.4-2.4
		c0.9-0.7,2.1-1.1,3.5-1.1c0.3,0,0.6,0,1,0c0.4,0,0.7,0.1,0.8,0.1c0.1,0.3,0.1,0.6,0.1,1c0,0.4,0,0.8,0,1.2c0,0.5,0,1-0.1,1.6
		c0,0.6-0.1,1.1-0.2,1.7c-0.3-0.1-0.7-0.1-1.1-0.1s-0.6,0-0.7,0c-0.5,0-1.1,0.1-1.7,0.2c-0.6,0.1-1.2,0.4-1.8,0.8
		c-0.6,0.4-1,1.1-1.4,2c-0.4,0.9-0.5,2.1-0.5,3.7v10.8c-0.5,0.1-1.1,0.1-1.6,0.2c-0.5,0-1,0-1.5,0s-1,0-1.5,0c-0.5,0-1-0.1-1.6-0.2
		V243.8z"/>
	<path class="st0" d="M218.9,234.4c1-0.2,2-0.3,3.1-0.3s2.1,0.1,3.1,0.3v32.1c-1,0.2-2.1,0.3-3.1,0.3s-2.1-0.1-3.1-0.3V234.4z
		 M226,254.6l5.6-10.8c1.1-0.2,2.3-0.3,3.5-0.3c1.1,0,2.2,0.1,3.2,0.3l-5.8,10.5l6.8,12.2c-1.2,0.2-2.4,0.3-3.5,0.3
		c-1,0-2.1-0.1-3.2-0.3L226,254.6z"/>
	<path class="st1" d="M255.3,235c1.1-0.2,2.2-0.3,3.2-0.3c0.5,0,1,0,1.6,0.1s1.1,0.1,1.6,0.2l-5.5,31.5c-1.2,0.2-2.3,0.3-3.3,0.3
		c-1.1,0-2.1-0.1-3.2-0.3L255.3,235z"/>
	<path class="st1" d="M266.4,235c1.1-0.2,2.2-0.3,3.2-0.3c0.5,0,1,0,1.6,0.1s1.1,0.1,1.6,0.2l-5.5,31.5c-1.2,0.2-2.3,0.3-3.3,0.3
		c-1.1,0-2.1-0.1-3.2-0.3L266.4,235z"/>
</g>
<g>
	<path class="st2" d="M157.6,21.4c-56.4,0-102.1,45.7-102.1,102.1s45.7,102.1,102.1,102.1s102.1-45.7,102.1-102.1
		S214,21.4,157.6,21.4z M157.6,191c-37.3,0-67.5-30.2-67.5-67.5c0-37.3,30.2-67.5,67.5-67.5c37.3,0,67.5,30.2,67.5,67.5
		C225.1,160.8,194.9,191,157.6,191z"/>
</g>
</svg>
