<?xml version="1.0" encoding="utf-8"?>
<!-- Generator: Adobe Illustrator 22.1.0, SVG Export Plug-In . SVG Version: 6.00 Build 0)  -->
<svg version="1.1" id="Layer_1" xmlns="http://www.w3.org/2000/svg" xmlns:xlink="http://www.w3.org/1999/xlink" x="0px" y="0px"
	 viewBox="0 0 300 300" style="enable-background:new 0 0 300 300;" xml:space="preserve">
<style type="text/css">
	.st0{fill:#F4F4F4;}
</style>
<path class="st0" d="M269,63.7H31c-17,0-31-13.9-31-31v0c0-17,13.9-31,31-31h238c17,0,31,13.9,31,31v0C300,49.7,286.1,63.7,269,63.7
	z"/>
<path class="st0" d="M269,299H31c-17,0-31-13.9-31-31v0c0-17,13.9-31,31-31h238c17,0,31,13.9,31,31v0C300,285.1,286.1,299,269,299z"
	/>
<path class="st0" d="M269,181.3H31c-17,0-31-13.9-31-31v0c0-17,13.9-31,31-31h238c17,0,31,13.9,31,31v0
	C300,167.4,286.1,181.3,269,181.3z"/>
</svg>
